<?xml version="1.0" encoding="UTF-8" standalone="no"?>
<svg width="102px" height="110px" viewBox="0 0 102 110" version="1.1" xmlns="http://www.w3.org/2000/svg" xmlns:xlink="http://www.w3.org/1999/xlink" xmlns:sketch="http://www.bohemiancoding.com/sketch/ns">
    <!-- Generator: bin/sketchtool 1.4 (305) - http://www.bohemiancoding.com/sketch -->
    <title>diplomat</title>
    <desc>Created with bin/sketchtool.</desc>
    <defs></defs>
    <g id="Page-1" stroke="none" stroke-width="1" fill="none" fill-rule="evenodd" sketch:type="MSPage">
        <g id="no_results_in_lost/find" sketch:type="MSArtboardGroup" transform="translate(-230.000000, -754.000000)" fill="#A09996">
            <g id="diplomat" sketch:type="MSLayerGroup" transform="translate(230.000000, 754.000000)">
                <path d="M32.614044,0.104280916 C31.9783272,0.21755496 31.9161375,0.23040047 31.3460655,0.367029987 C31.507298,0.320319041 31.1675581,0.411405385 30.8796429,0.52818275 C30.6389458,0.574893696 30.4477701,0.639121247 30.2635044,0.706852119 L30.2577461,0.708019892 C29.8523615,0.855159372 29.4757684,1.01514436 29.1394835,1.1774649 L28.4450321,1.55699134 L23.8372374,2.0638051 C0.722254611,5.68623896 -8.21232945,24.3297453 8.9312924,72.5798169 L8.96699388,72.6276956 L9.10288985,74.8301167 C9.18465776,75.6475583 9.28139727,76.3388803 9.35280023,76.7499366 C9.56585747,77.9877767 10.7232765,85.1835979 11.0503482,86.9901437 C11.2472822,88.0738377 11.3716615,90.1898435 11.6503634,91.3961537 C12.0764779,93.2248873 13.6957129,107.18095 15.7468207,109.023697 L15.8401052,109.096099 L15.9955794,109.201199 C16.0370392,109.229225 16.0796506,109.253748 16.1245654,109.273601 C20.9799671,111.459673 27.1701436,105.509866 30.9095861,102.751585 C35.0348348,99.7142054 50.2022069,99.7632519 54.6510723,102.661666 C57.4092998,104.461205 63.2021533,111.071972 66.9450508,109.850481 C71.0772095,108.504038 71.7025613,98.6153304 72.0330879,96.0368862 C72.4534441,92.7542745 73.7882189,82.1940974 74.1291105,74.9258742 L74.1959068,73.0877984 C74.3352578,72.9254779 74.415874,72.7117753 74.4066607,72.4817239 C74.4009024,72.3672821 74.3962958,72.2540081 74.3893858,72.1383985 C75.6182078,68.9235176 76.7238021,65.8405952 77.8063632,62.6023589 C77.8950411,62.3571264 77.9722024,62.1247394 78.0343921,61.8981913 C78.964934,59.1107156 79.7733998,56.462205 80.6025955,53.459859 C80.6981834,53.1539023 80.7764963,52.8666299 80.838686,52.5793576 C81.5054976,50.1632339 82.0594464,47.8755654 82.6180018,45.189686 C82.6974664,44.8790582 82.7562011,44.5929536 82.7976609,44.3045135 C83.2433536,42.1546423 83.5842452,40.1262194 83.8859803,37.7474645 C83.9389567,37.4695344 83.9712032,37.2161275 83.9850231,36.9650562 C84.2326302,35.0043642 84.3788911,33.1616174 84.4399291,31.0829803 C84.464114,30.8774521 84.4687207,30.6941117 84.4618107,30.4827446 C84.5055738,29.0090143 84.4802373,27.6158603 84.3270664,25.9844805 C84.328218,25.2149177 84.263725,24.5200924 84.0898243,23.6290811 C84.0449095,22.7450764 83.9193785,21.9568292 83.6556482,20.9350273 C83.6026718,20.3569793 83.486354,19.8536689 83.1661924,18.8762423 C83.1143676,18.4476694 83.0072632,18.0856596 82.8944004,17.7318242 L82.4659826,16.7146933 L82.8932488,17.7271531 C82.6456417,16.9517514 82.3715464,16.2078795 82.070963,15.4967054 L81.3753599,14.0451627 L82.0295032,13.3842029 C82.4037929,13.0817495 82.8091775,12.8236715 83.2445053,12.6123045 C85.764339,11.3873099 88.608941,12.1323495 90.3698303,13.982103 C91.5134294,15.183742 92.1145963,16.7065189 91.5422209,18.4698571 C91.3521969,19.058415 91.0320352,19.672664 90.557551,20.3114361 C88.8576998,22.5979369 89.3079991,25.8525221 91.5641025,27.576156 C93.8190542,29.2997899 97.0275811,28.8431904 98.7274323,26.5566896 C103.929484,19.5605577 102.42887,11.7131188 97.7323975,6.77810732 C94.9568951,3.86217652 90.9848171,1.8909746 86.6937292,1.651581 C85.835742,1.60370228 84.9650864,1.62472221 84.0886726,1.72164742 C82.335845,1.91433007 80.5599841,2.41063387 78.8175214,3.25960532 C77.8938895,3.70919817 77.0393572,4.22885744 76.2504696,4.80924095 L74.6277796,6.2339248 L73.1513505,5.25649826 C72.4603541,4.85011303 71.7463244,4.48109655 70.9862283,4.13310001 C70.9988966,4.13893887 71.0299914,4.15295216 71.0622379,4.16696544 C71.0150198,4.14594552 70.9724084,4.12609336 70.9678017,4.12375782 C70.9597401,4.11908672 70.9516785,4.1155834 70.9436169,4.11208008 L70.9424652,4.11208008 C70.6384268,3.97194724 70.3297817,3.83882105 70.9678017,4.12375782 C70.9827733,4.12959668 70.9965933,4.13660333 70.9862283,4.13310001 C69.8599041,3.64730617 69.7631646,3.60876964 69.4591262,3.48965672 C69.1769693,3.37638268 68.6667836,3.19187444 67.8456495,2.94430643 C67.6118623,2.84504567 67.3631036,2.76914038 67.1016766,2.71775834 C65.1403984,2.11518714 63.0616507,1.70763414 60.9115001,1.44021397 L55.5413061,1.05368089 L55.5793109,1.05601644 C55.0622152,0.824797257 54.44838,0.595913622 53.7792651,0.411405385 L53.7712035,0.409069838 C53.6664024,0.379875497 53.5604496,0.351848929 53.4671651,0.367029987 C52.5492914,0.0996098211 51.5174034,-0.0416907904 51.3331377,0.0108590238 C50.4578755,0.020201213 50.4072025,0.0237045339 50.1446238,0.0482277805 C50.0824341,0.0505633278 49.8106422,0.0879320846 49.5503669,0.162669598 C49.3833761,0.176682882 49.2866366,0.200038355 49.1956554,0.244413754 C48.691228,0.370533308 48.3111799,0.52818275 47.9530134,0.73604646 L47.2758369,1.25804128 L41.8399982,1.75434508 L38.0084229,1.49977043 C37.7343276,1.22534362 37.4418058,0.996459984 37.1297057,0.806112879 C37.0801843,0.77458299 37.0283596,0.744220876 36.9189518,0.72320095 C36.5953352,0.504827277 36.2406236,0.361191119 35.8628789,0.305137983 C35.1799441,0.0505633278 34.4371229,-0.0195030911 33.6966051,0.00618792918 C33.1380496,0.0237045339 32.5806458,0.0961065002 32.614044,0.104280916 L32.614044,0.104280916 Z M54.0833036,2.33706413 C54.125915,2.38611063 54.1731331,2.43048603 54.2272612,2.4713581 C57.1478728,4.638746 58.8891838,7.02100424 60.6592864,10.1506376 C60.8965285,10.5698684 61.4239891,10.7146723 61.838587,10.4741109 C62.2520332,10.2335495 62.3948392,9.69870922 62.157597,9.2783107 C60.7790591,6.83999932 59.3728814,4.76486555 57.4104515,2.88007888 C62.1426255,3.1626801 66.5074197,4.01165155 70.2272839,5.70725888 C71.6461299,6.35303771 72.9716914,7.12260055 74.1889968,8.03112845 C74.5367984,8.29154197 75.0204959,8.25066989 75.3210794,7.93653878 C76.50038,6.70336981 77.9100127,5.64536688 79.5649492,4.83960306 C84.2257202,2.56945109 89.1697998,3.11947248 93.0347733,5.30554475 C94.3234816,6.03423551 95.4912656,6.94509895 96.4897555,7.99375969 C100.661071,12.377582 101.984329,19.2674465 97.3488944,25.50219 C96.7857323,26.2589073 95.9726598,26.7120035 95.1135209,26.8346197 C94.6839515,26.895344 94.2428654,26.8743241 93.8155993,26.7657211 C93.3894848,26.6571182 92.9771902,26.4632677 92.6040522,26.178331 C91.1103482,25.0362483 90.812068,22.8793704 91.9360889,21.3659357 C94.4006429,18.0541297 93.6647317,14.9221608 91.6124723,12.7664506 C89.393222,10.4332388 85.760884,9.44530234 82.4970775,11.0323067 C81.3845732,11.5741537 80.4333014,12.3518909 79.6616887,13.3199753 C79.4405698,13.5955699 79.4071717,13.9797674 79.5753141,14.291563 C80.1879977,15.4243034 80.7223683,16.664479 81.1692126,18.0202642 C84.2982749,27.5095929 83.1466141,42.6521138 74.6726944,66.388281 L73.9506031,68.3372952 C71.6737698,54.9697903 61.6600796,36.3800016 53.1343351,26.6209172 L53.148155,26.5695351 L43.3256405,16.969268 L34.0950797,26.0008294 C34.0743498,26.0148426 34.0547715,26.0300237 34.036345,26.0475403 C25.6798946,33.3099246 11.6273302,55.0491989 9.50597111,68.8429412 L8.21956606,64.9857849 L7.49632311,62.818397 C7.29478248,62.1714504 7.09900015,61.5303426 6.96195253,60.9581336 C6.58535946,59.8253931 6.1500317,58.3154618 5.79992683,56.905959 C5.4958884,55.956559 5.12735696,54.5645728 4.84289676,53.2695118 C4.51928009,52.1262614 4.18184349,50.6934032 3.9261748,49.3598057 C3.71081424,48.5925784 3.45744888,47.3710871 3.28469977,46.2441856 C3.02787942,45.1126129 2.79294063,43.7650021 2.63631477,42.5096454 C2.49005385,41.8918932 2.33688298,40.8187092 2.26432835,39.8377793 C2.08927591,38.7517498 1.96028991,37.5010643 1.90731352,36.3379617 C1.81172568,35.8241413 1.75068766,34.8759091 1.76796257,34.0187632 C1.68043635,33.0098068 1.65970646,31.8723953 1.71153119,30.8167279 C1.6585548,30.3647995 1.68273967,29.5193314 1.78408582,28.7614463 C1.78293416,27.8564217 1.86930871,26.8427942 2.02132793,25.9085752 C2.01211465,25.4800023 2.11921909,24.7209494 2.30233315,24.047144 C2.38179774,23.2624002 2.56606346,22.3818988 2.81251886,21.5714639 C2.85628197,21.1487298 3.04860932,20.4632467 3.31464295,19.8595077 C3.46090386,19.2008834 3.7326958,18.4523405 4.06207077,17.7715285 C4.17608518,17.3441233 4.45824207,16.7252033 4.81295358,16.1856918 C5.00758424,15.6496837 5.35423413,15.0307637 5.75155708,14.4714001 C5.95540104,14.043995 6.33314576,13.4893025 6.78229345,13.0128508 C7.61955081,11.8298961 8.30133397,11.0813532 9.01306031,10.4157222 C9.52439768,9.9345995 9.94245053,9.57609298 10.3985082,9.25962633 C10.8280776,8.87309325 11.414273,8.45152696 12.0707196,8.10236264 C12.3321466,7.84895576 12.8146924,7.55584457 13.3317881,7.30010214 C13.8880402,6.95677669 14.584795,6.60527682 15.3494977,6.32617892 C15.630503,6.13116072 16.1291721,5.92096146 16.6543294,5.74112432 C17.3464775,5.45268423 18.1572466,5.17708965 19.0348121,4.96805816 C19.3400022,4.82091869 19.836368,4.68312139 20.3500087,4.56634403 C21.2114509,4.33512485 22.1661777,4.12959668 23.1853974,3.98946385 C23.4986492,3.89020309 23.9420385,3.81663335 24.3969445,3.75474134 C25.2837233,3.61694405 26.1969903,3.50483778 27.1321388,3.41608699 C25.4438042,5.1572375 24.1723707,7.06888296 22.9239704,9.2783107 C22.6867283,9.69870922 22.8295343,10.2335495 23.2429805,10.4741109 C23.6575783,10.7146723 24.185039,10.5698684 24.4222811,10.1506376 C26.1923836,7.02100424 27.9336947,4.638746 30.8543063,2.4713581 C30.9303159,2.41413719 30.9959606,2.34640632 31.0477853,2.27166881 C31.7145969,2.04512072 32.4378399,1.87462577 33.1541728,1.80105603 C34.4382746,1.66792983 35.7004948,1.84426365 36.5826669,2.55894113 C37.0905493,4.36665474 36.8417906,5.89527044 36.3131783,7.4881137 C35.7465612,9.19539878 34.8586307,10.9610725 34.3449901,13.0537229 C34.229824,13.5231679 34.5108292,13.9984518 34.9737968,14.1152292 C35.4367644,14.2320065 35.9054904,13.9470698 36.0206564,13.4776247 C36.500899,11.526275 37.3496729,9.85752643 37.9508398,8.04747728 C38.4368407,6.57841803 38.7512441,5.03111794 38.4990304,3.27478637 C39.5758332,3.33317506 40.6687592,3.41141589 41.7789602,3.50600556 C41.8342399,3.51067665 41.8906713,3.50950888 41.945951,3.50367001 C43.5052996,3.32733619 45.0646483,3.17552561 46.6147836,3.05758047 C46.3038352,4.90499839 46.6228453,6.51886157 47.1307276,8.04747728 C47.7284396,9.84468092 48.5818202,11.5286105 49.0609111,13.4776247 C49.1760771,13.9470698 49.6448031,14.2320065 50.1077707,14.1152292 C50.5707383,13.9984518 50.8517435,13.5231679 50.7365774,13.0537229 C50.2229367,10.9622403 49.3315513,9.18255327 48.7683892,7.4881137 C48.2271087,5.86140501 47.97835,4.30359496 48.5299954,2.44449931 C49.9027751,1.44021397 52.1750017,1.6562521 54.0833036,2.33706413 L54.0833036,2.33706413 Z M9.01306031,10.4157222 C9.00154371,10.4215611 8.98542045,10.4367422 8.9692972,10.453091 C9.08215996,10.3456558 9.08331162,10.3456558 9.07064335,10.3573336 C9.05106512,10.3748502 9.03148688,10.3923668 9.01306031,10.4157222 L9.01306031,10.4157222 Z M43.3267922,19.4017405 L51.2191233,27.117221 L44.7894014,51.8857001 L45.506886,52.1683013 C47.2689269,52.8642944 48.4701091,53.5497775 48.5967918,55.2722437 L48.5898818,55.6868033 L43.3498254,59.274204 L38.1673521,55.5513416 L38.2134185,55.1788218 C38.56122,53.3582626 39.6506911,52.489439 41.2630162,51.9137266 L42.0277189,51.6404676 L35.2363755,27.3169103 L43.3267922,19.4017405 L43.3267922,19.4017405 Z M33.8106195,28.6399978 L39.9339997,50.5719547 L39.8372601,50.611659 C38.24221,51.3672086 37.0283596,52.5711832 36.5676953,54.6042771 L21.255214,45.3601809 L21.2436974,45.3543421 C25.3666429,38.5357117 30.0274139,32.3476791 33.8083161,28.6318234 L33.8106195,28.6399978 L33.8106195,28.6399978 Z M63.9472778,46.1507637 L50.2551832,54.6136193 C49.9050784,52.6015453 48.4585925,51.5727367 46.9418553,50.8779114 L46.8474191,50.8382071 L52.5976612,28.685541 L52.6011162,28.6715277 C56.4303882,33.2445293 60.487689,39.5037961 63.9472778,46.1507637 L63.9472778,46.1507637 Z M20.352312,46.8525956 L20.3580703,46.8572667 L36.9868998,56.895449 C37.0421795,56.9281467 37.0997626,56.9550055 37.1596489,56.9748576 L37.1101275,56.9386567 L41.1870065,59.867433 C32.2892756,60.2819926 23.1174495,63.3147008 13.7302627,68.978403 L11.0215567,70.7207213 C11.5478656,64.201041 15.484242,55.1683118 20.352312,46.8525956 L20.352312,46.8525956 Z M72.467264,70.0971301 L70.0764163,68.3805029 C62.1990568,63.1418703 54.0095973,60.3030125 45.5575591,59.8744396 L50.174567,56.7156119 L64.7338621,47.7167481 L64.7453787,47.7097415 C68.6333854,55.4590874 71.6346133,63.5914631 72.467264,70.0971301 L72.467264,70.0971301 Z M69.1573911,69.8647432 L72.481084,72.2516725 C72.4281076,79.1567181 70.8008109,92.0547781 70.3205684,95.8115059 C69.8610558,99.3895643 69.1850309,107.281379 66.4164385,108.184068 C63.9276996,108.99567 59.1045444,103.483779 55.5850692,101.189104 C50.6041365,97.9426928 34.6559385,97.828251 29.8949729,101.335075 C25.9735681,104.226483 21.7124233,108.17239 18.2551378,108.008902 L16.8777515,107.684261 L16.3710208,106.739532 C15.1352888,103.375176 13.8131823,93.0613989 13.3329398,90.9956074 C12.9989582,89.5534069 13.0749678,88.4627063 12.7490478,86.6736771 C12.4219761,84.8601246 11.278377,77.7530542 11.0538032,76.4474832 C10.945547,75.8273954 10.7693429,74.4447514 10.694485,72.9943766 C31.6109474,58.8070945 51.2087583,57.9137476 69.1573911,69.8647432 L69.1573911,69.8647432 Z M74.1970585,73.0574363 L74.1959068,73.0877984 L74.1970585,73.0574363 L74.1970585,73.0574363 Z M24.3186316,75.1967977 C24.1861906,75.5331165 24.3485748,75.9149785 24.6814047,76.0492724 L31.7364785,78.893969 C32.0681568,79.028263 32.4447498,78.8636069 32.5771908,78.5261203 C32.7096318,78.1898015 32.5472476,77.8079395 32.2144177,77.6736456 L25.159344,74.828949 C24.8276657,74.694655 24.4510726,74.8593111 24.3186316,75.1967977 L24.3186316,75.1967977 Z M59.6193368,75.0893625 L52.564263,77.9352269 C52.2314331,78.0695208 52.0690489,78.4513828 52.2014899,78.7877016 C52.3339309,79.1251882 52.710524,79.2898443 53.0422022,79.1555503 L60.097276,76.3096859 C60.4301059,76.175392 60.5924901,75.79353 60.4600491,75.4572112 C60.3276081,75.1197246 59.9510151,74.9550685 59.6193368,75.0893625 L59.6193368,75.0893625 Z M36.5354488,77.6082502 C35.5346556,78.0776953 34.7734079,78.9827198 34.541924,80.287123 C34.4578528,80.7624069 34.7699529,81.2178386 35.2398305,81.3042538 C35.7085564,81.3895013 36.1577041,81.0730347 36.242927,80.596583 C36.371913,79.8655567 36.762326,79.4323127 37.2598434,79.198758 C37.787304,78.9523577 38.4921204,78.9103179 39.2061501,79.1181816 C40.5685647,79.5163924 41.7685952,80.7472258 41.5290498,82.7417832 C40.2011849,82.8842516 38.961998,83.3805554 38.0544893,84.0975684 C37.6778963,84.3953507 37.6099483,84.9453721 37.9024701,85.3272341 C38.1961436,85.709096 38.7385758,85.7779947 39.1151689,85.4813802 C39.8395635,84.9091711 40.9509161,84.4887726 42.1590082,84.4537394 C43.3555837,84.4187062 44.6016806,84.7608638 45.639327,85.6460363 C46.0032518,85.9578318 46.549139,85.9099531 46.8554807,85.5397689 C47.1629741,85.1707524 47.1157561,84.6172277 46.7506796,84.3065999 C45.7602514,83.4611318 44.6373821,82.9893512 43.5179679,82.7990041 C43.2484793,80.7799235 44.4657847,79.5187279 45.8339576,79.1193493 C46.5479873,78.9114856 47.2528037,78.9535255 47.7802643,79.1999257 C48.2777817,79.4334805 48.6681947,79.8667245 48.7971807,80.5977508 C48.8824036,81.0742024 49.3315513,81.3906691 49.8002773,81.3054216 C50.2701548,81.2190064 50.5822549,80.7635746 50.4981837,80.2882908 C50.2666999,78.9838876 49.5054521,78.078863 48.5046589,77.609418 C47.5338089,77.1551541 46.3925131,77.1329664 45.3560184,77.4365875 C44.2492725,77.758893 43.2001095,78.4770738 42.5217813,79.5304057 C41.8446048,78.4770738 40.7954419,77.7600608 39.6840893,77.4354197 C38.6475946,77.1317986 37.5062988,77.1539863 36.5354488,77.6082502 L36.5354488,77.6082502 Z M24.2944467,78.5471403 C24.2023139,78.8974724 24.4084611,79.2571466 24.7539594,79.3505685 L31.4681415,81.1606177 C31.8136397,81.2540396 32.1683512,81.0450081 32.2604841,80.694676 C32.352617,80.3443439 32.1464697,79.9846696 31.8009715,79.8912477 L25.0867893,78.0811986 C24.7412911,77.9877767 24.3865796,78.1968082 24.2944467,78.5471403 L24.2944467,78.5471403 Z M59.6918914,78.3416121 L52.9765576,80.152829 C52.6310594,80.2462509 52.4249121,80.6059252 52.5170449,80.9562573 C52.6091778,81.3065894 52.9638893,81.5156209 53.3093875,81.422199 L60.0247213,79.6109821 C60.3702196,79.5175602 60.5763668,79.1578859 60.484234,78.8075538 C60.3921011,78.4572217 60.0373896,78.2481902 59.6918914,78.3416121 L59.6918914,78.3416121 Z M21.2079959,87.5810372 C21.2079959,91.0014462 23.9454935,93.7807475 27.3198595,93.7807475 C30.6919222,93.7807475 33.4305714,91.0014462 33.4305714,87.5810372 C33.4305714,84.1606282 30.6919222,81.3824947 27.3198595,81.3824947 C23.9454935,81.3824947 21.2079959,84.1606282 21.2079959,87.5810372 L21.2079959,87.5810372 Z M51.8099253,87.5810372 C51.8099253,91.0014462 54.5474228,93.7807475 57.9206372,93.7807475 C61.2938515,93.7807475 64.0325007,91.0014462 64.0325007,87.5810372 C64.0325007,84.1606282 61.2938515,81.3824947 57.9206372,81.3824947 C54.5474228,81.3824947 51.8099253,84.1606282 51.8099253,87.5810372 L51.8099253,87.5810372 Z M31.7030803,87.5810372 C31.7030803,90.0356974 29.7371954,92.029087 27.3198595,92.029087 C24.9002203,92.029087 22.9354871,90.0356974 22.9354871,87.5810372 C22.9354871,85.126377 24.9002203,83.1341552 27.3198595,83.1341552 C29.7371954,83.1341552 31.7030803,85.126377 31.7030803,87.5810372 L31.7030803,87.5810372 Z M62.3050096,87.5810372 C62.3050096,90.0356974 60.3391247,92.029087 57.9206372,92.029087 C55.5021496,92.029087 53.5374164,90.0356974 53.5374164,87.5810372 C53.5374164,85.126377 55.5021496,83.1341552 57.9206372,83.1341552 C60.3391247,83.1341552 62.3050096,85.126377 62.3050096,87.5810372 L62.3050096,87.5810372 Z M24.9635616,88.2711914 C24.9635616,89.5907757 26.0196345,90.6627919 27.3210112,90.6627919 C28.6223878,90.6627919 29.6784607,89.5907757 29.6784607,88.2711914 C29.6784607,86.952775 28.6223878,85.879591 27.3210112,85.879591 C26.0196345,85.879591 24.9635616,86.952775 24.9635616,88.2711914 L24.9635616,88.2711914 Z M55.3950451,88.2711914 C55.3950451,89.5907757 56.4522697,90.6627919 57.7524947,90.6627919 C59.0538713,90.6627919 60.1110959,89.5907757 60.1110959,88.2711914 C60.1110959,86.952775 59.0538713,85.879591 57.7524947,85.879591 C56.4522697,85.879591 55.3950451,86.952775 55.3950451,88.2711914 L55.3950451,88.2711914 Z M29.9767409,94.237347 L29.9767409,96.9103809 C29.9767409,97.2723907 30.2669594,97.5666697 30.6251259,97.5666697 C30.9821407,97.5666697 31.2723592,97.2723907 31.2723592,96.9103809 L31.2723592,94.237347 C31.2723592,93.8741694 30.9821407,93.5798904 30.6251259,93.5798904 C30.2669594,93.5798904 29.9767409,93.8741694 29.9767409,94.237347 L29.9767409,94.237347 Z M54.7904233,94.2385148 L54.7904233,96.9115487 C54.7904233,97.2735585 55.0806418,97.5678375 55.4388083,97.5678375 C55.7958231,97.5678375 56.0860416,97.2735585 56.0860416,96.9115487 L56.0860416,94.2385148 C56.0860416,93.8753372 55.7958231,93.5810582 55.4388083,93.5810582 C55.0806418,93.5810582 54.7904233,93.8753372 54.7904233,94.2385148 L54.7904233,94.2385148 Z M27.5962581,94.6682555 L27.5962581,97.3412894 C27.5962581,97.7032992 27.8864766,97.9975782 28.2446431,97.9975782 C28.6016579,97.9975782 28.8918764,97.7032992 28.8918764,97.3412894 L28.8918764,94.6682555 C28.8918764,94.3050779 28.6016579,94.0107989 28.2446431,94.0107989 C27.8864766,94.0107989 27.5962581,94.3050779 27.5962581,94.6682555 L27.5962581,94.6682555 Z M57.1697544,94.6694233 L57.1697544,97.3424571 C57.1697544,97.704467 57.4599729,97.9987459 57.8181394,97.9987459 C58.1751542,97.9987459 58.4653727,97.704467 58.4653727,97.3424571 L58.4653727,94.6694233 C58.4653727,94.3062457 58.1751542,94.0119667 57.8181394,94.0119667 C57.4599729,94.0119667 57.1697544,94.3062457 57.1697544,94.6694233 L57.1697544,94.6694233 Z" id="Shape" sketch:type="MSShapeGroup" transform="translate(51.000000, 55.000000) scale(1, -1) translate(-51.000000, -55.000000) "></path>
            </g>
        </g>
    </g>
</svg>