<?xml version="1.0" encoding="UTF-8" standalone="no"?>
<svg width="87px" height="93px" viewBox="0 0 87 93" version="1.1" xmlns="http://www.w3.org/2000/svg" xmlns:xlink="http://www.w3.org/1999/xlink" xmlns:sketch="http://www.bohemiancoding.com/sketch/ns">
    <!-- Generator: bin/sketchtool 1.4 (305) - http://www.bohemiancoding.com/sketch -->
    <title>ic2</title>
    <desc>Created with bin/sketchtool.</desc>
    <defs></defs>
    <g id="Page-1" stroke="none" stroke-width="1" fill="none" fill-rule="evenodd" sketch:type="MSPage">
        <g id="gladPet_main" sketch:type="MSArtboardGroup" transform="translate(-656.000000, -796.000000)">
            <g id="important-parts" sketch:type="MSLayerGroup" transform="translate(0.000000, 759.000000)">
                <g id="homes" transform="translate(590.000000, 1.000000)" sketch:type="MSShapeGroup">
                    <g id="ic2" transform="translate(61.000000, 35.000000)">
                        <g id="stay" transform="translate(46.000000, 47.100000) scale(1, -1) translate(-46.000000, -47.100000) translate(0.000000, 0.600000)" fill="#A09996">
                            <path d="M64.686,5.062 C64.782,7.456 66.802,9.322 69.195,9.225 C71.422,9.136 73.396,9.79 75.143,11.077 L76.747,12.511 L76.258,12.371 C69.48,10.76 61.502,10.908 54.733,11.032 C50.539,11.107 46.258,11.521 42.132,12.443 L38.487,13.428 L36.72,11.865 C35.985,11.325 35.235,10.9 34.517,10.689 C32.826,10.192 31.406,10.92 30.865,13.111 C30.699,13.776 30.733,14.471 30.866,15.15 L31.13,16.009 C31.094,16.176 31.114,16.355 31.2,16.518 L31.203,16.516 L30.217,17.106 C30.1,17.111 29.983,17.143 29.875,17.206 C29.729,17.289 29.571,17.389 29.401,17.504 L27.531,15.357 C26.643,14.477 25.689,13.683 24.766,13.148 C22.78,11.998 20.581,11.939 19.825,14.999 C19.25,17.316 21.212,20.574 21.48,21.824 C21.545,22.137 21.648,22.539 21.738,22.912 L21.916,23.826 L21.917,24.089 L21.92,24.467 L19.564,28.049 C17.287,32.166 15.752,37.185 15.2,43.267 C14.049,55.969 14.693,69.483 17.787,81.567 C18.189,83.135 19.882,90.702 22.395,92.009 C25.343,93.542 28.053,87.466 30.666,85.741 C34.446,83.246 40.142,82.928 44.144,85.237 C46.527,86.608 49.688,93.399 52.963,92.601 C56.018,91.857 58.005,83.827 58.497,81.699 C59.495,77.381 60.346,73.11 62.633,69.394 C69.411,58.37 88.124,54.532 91.111,35.947 C91.666,32.489 91.708,29.485 91.309,26.876 L90.784,24.487 L90.041,20.099 C88.882,15.189 86.603,10.305 83.131,6.622 C79.588,2.862 74.749,0.318 68.848,0.554 C66.455,0.651 64.591,2.669 64.686,5.062 L64.686,5.062 Z M82.04,7.651 C85.29,11.1 87.467,15.726 88.582,20.444 C88.91,21.838 89.152,23.26 89.299,24.686 C89.304,24.731 89.313,24.775 89.326,24.819 C90.163,27.686 90.344,31.256 89.63,35.71 C86.738,53.701 68.71,56.647 61.356,68.609 C58.911,72.579 58.012,77.132 57.036,81.362 C56.361,84.277 54.402,90.707 52.608,91.144 C50.597,91.633 48.066,85.764 44.893,83.938 C40.373,81.329 34.067,81.699 29.839,84.49 C26.673,86.579 24.528,91.427 23.088,90.678 C21.393,89.797 19.885,83.713 19.24,81.194 C16.198,69.31 15.554,55.972 16.693,43.402 C17.389,35.739 19.681,29.909 22.996,25.498 C23.053,25.455 23.104,25.405 23.149,25.347 C23.781,24.514 25.204,23.057 26.726,21.655 C27.746,20.716 28.766,19.844 29.578,19.225 C29.627,19.205 29.674,19.18 29.719,19.151 C30.402,18.691 31.102,18.259 31.82,17.856 C32.553,19.719 32.869,21.772 33.021,23.849 C33.052,24.262 33.411,24.573 33.824,24.543 C34.237,24.512 34.548,24.153 34.518,23.74 C34.343,21.349 33.948,18.84 32.862,16.574 C32.869,16.564 32.865,16.554 32.862,16.545 C32.391,15.331 32.117,14.292 32.32,13.472 C32.68,12.019 33.31,11.897 34.094,12.128 C34.986,12.389 36.096,13.183 37.208,14.238 C37.253,14.325 37.315,14.404 37.394,14.471 C39.673,16.378 41.471,19.055 42.769,21.838 C42.944,22.214 43.39,22.376 43.765,22.201 C44.141,22.026 44.303,21.58 44.128,21.205 C43.03,18.85 41.567,16.516 39.728,14.603 C44.54,13.215 49.693,12.622 54.76,12.531 C62.571,12.39 71.602,12.239 78.603,14.596 C79.286,14.826 79.87,14.047 79.457,13.456 C78.976,12.768 78.457,12.126 77.907,11.543 C75.532,9.022 72.612,7.588 69.134,7.726 C67.571,7.789 66.247,6.569 66.185,5.003 C66.122,3.438 67.342,2.116 68.909,2.053 C74.3,1.837 78.739,4.147 82.04,7.651 L82.04,7.651 Z M22.119,5.893 L22.131,5.897 L21.872,6.195 C21.952,6.092 22.035,5.991 22.119,5.893 L22.119,5.893 Z M0.907,5.991 L0.898,6.005 L0.896,6.004 C0.899,5.999 0.903,5.995 0.907,5.991 L0.907,5.991 Z M18.456,8.218 L18.449,8.218 L18.4,8.09 C18.419,8.132 18.438,8.175 18.456,8.218 L18.456,8.218 Z M17.313,9.401 C17.287,9.332 17.262,9.267 17.245,9.253 C17.168,9.021 17.23,9.179 17.313,9.401 L17.313,9.401 Z M17.482,9.928 C17.39,9.6 17.415,9.662 17.482,9.928 L17.482,9.928 Z M17.505,10.01 C17.501,9.998 17.497,9.987 17.496,9.985 C17.498,9.971 17.486,9.924 17.482,9.928 C17.479,9.919 17.491,9.961 17.505,10.01 L17.505,10.01 Z M24.014,14.446 C25.415,15.257 27,16.848 28.229,18.375 C27.44,19.003 26.557,19.772 25.71,20.552 C24.846,21.346 23.99,22.18 23.278,22.927 C23.159,22.372 22.997,21.754 22.947,21.513 C22.497,19.409 20.851,17.09 21.28,15.36 C21.691,13.699 22.509,13.574 24.014,14.446 L24.014,14.446 Z M18.968,60.581 C18.852,60.869 18.991,61.197 19.279,61.313 L24.712,63.502 C25,63.618 25.328,63.479 25.444,63.191 C25.56,62.903 25.421,62.575 25.133,62.459 L19.7,60.27 C19.412,60.154 19.084,60.293 18.968,60.581 L18.968,60.581 Z M58.107,60.572 L52.67,62.762 C52.382,62.878 52.243,63.206 52.359,63.494 C52.475,63.782 52.803,63.921 53.091,63.805 L58.528,61.615 C58.816,61.499 58.955,61.171 58.839,60.883 C58.723,60.595 58.395,60.456 58.107,60.572 L58.107,60.572 Z M18.185,63.465 C18.118,63.768 18.311,64.068 18.614,64.135 L24.802,65.494 C25.105,65.561 25.405,65.368 25.472,65.065 C25.539,64.762 25.346,64.462 25.043,64.395 L18.855,63.036 C18.552,62.969 18.252,63.162 18.185,63.465 L18.185,63.465 Z M58.95,63.338 L52.76,64.696 C52.457,64.763 52.265,65.063 52.331,65.366 C52.398,65.669 52.698,65.861 53.001,65.795 L59.191,64.437 C59.494,64.37 59.686,64.07 59.62,63.767 C59.553,63.464 59.253,63.272 58.95,63.338 L58.95,63.338 Z M40.706,64.775 L38.7,66.694 L36.711,64.956 C36.399,64.683 35.925,64.715 35.653,65.027 C35.38,65.339 35.412,65.813 35.724,66.085 L37.468,67.609 C36.548,67.785 35.664,68.161 34.92,68.693 C34.583,68.933 34.505,69.402 34.745,69.739 C34.985,70.076 35.454,70.154 35.791,69.914 C36.598,69.338 37.627,68.999 38.626,68.998 C39.616,68.997 40.543,69.325 41.224,70.043 C41.509,70.343 41.984,70.355 42.285,70.071 C42.585,69.786 42.597,69.311 42.313,69.01 C41.622,68.282 40.773,67.843 39.883,67.637 L41.743,65.86 C42.042,65.573 42.053,65.098 41.767,64.799 C41.48,64.5 41.005,64.489 40.706,64.775 L40.706,64.775 Z M22.995,70.956 C22.995,73.459 25.026,75.491 27.531,75.491 C30.034,75.491 32.066,73.459 32.066,70.956 C32.066,68.451 30.034,66.42 27.531,66.42 C25.026,66.42 22.995,68.451 22.995,70.956 L22.995,70.956 Z M44.773,70.956 C44.773,73.459 46.804,75.491 49.308,75.491 C51.812,75.491 53.843,73.459 53.843,70.956 C53.843,68.452 51.812,66.42 49.308,66.42 C46.804,66.42 44.773,68.451 44.773,70.956 L44.773,70.956 Z M30.566,70.956 C30.566,71.189 30.539,71.416 30.489,71.635 C30.189,71.234 29.711,70.974 29.172,70.974 C28.265,70.974 27.53,71.71 27.53,72.616 C27.53,73.148 27.783,73.621 28.175,73.922 C27.967,73.967 27.752,73.991 27.531,73.991 C25.855,73.991 24.495,72.63 24.495,70.956 C24.495,69.28 25.855,67.92 27.531,67.92 C29.205,67.92 30.566,69.28 30.566,70.956 L30.566,70.956 Z M52.343,70.956 C52.343,71.145 52.325,71.331 52.292,71.511 C51.996,71.223 51.592,71.047 51.148,71.047 C50.241,71.047 49.506,71.783 49.506,72.69 C49.506,73.169 49.711,73.601 50.04,73.901 C49.805,73.96 49.56,73.991 49.308,73.991 C47.633,73.991 46.273,72.63 46.273,70.956 C46.273,69.28 47.633,67.92 49.308,67.92 C50.983,67.92 52.343,69.279 52.343,70.956 L52.343,70.956 Z M24.793,77.858 L24.415,80.498 C24.371,80.805 24.584,81.09 24.892,81.134 C25.199,81.178 25.484,80.965 25.528,80.657 L25.906,78.017 C25.95,77.71 25.737,77.425 25.429,77.381 C25.122,77.337 24.837,77.55 24.793,77.858 L24.793,77.858 Z M26.975,78.238 L26.975,80.956 C26.975,81.266 27.227,81.518 27.538,81.518 C27.848,81.518 28.1,81.266 28.1,80.956 L28.1,78.238 C28.1,77.927 27.848,77.675 27.538,77.675 C27.227,77.675 26.975,77.927 26.975,78.238 L26.975,78.238 Z M50.529,78.311 L50.907,80.953 C50.951,81.261 51.236,81.474 51.543,81.43 C51.851,81.386 52.064,81.101 52.02,80.794 L51.642,78.152 C51.598,77.844 51.313,77.631 51.006,77.675 C50.698,77.719 50.485,78.004 50.529,78.311 L50.529,78.311 Z M48.333,78.533 L48.333,81.251 C48.333,81.561 48.585,81.813 48.896,81.813 C49.206,81.813 49.458,81.561 49.458,81.251 L49.458,78.533 C49.458,78.222 49.206,77.97 48.896,77.97 C48.585,77.97 48.333,78.222 48.333,78.533 L48.333,78.533 Z" id="Shape"></path>
                        </g>
                        <g id="Group-Copy-2" transform="translate(6.000000, 46.000000)" stroke="#A09996" stroke-width="1.5">
                            <path d="M0.272727273,18.6019176 L22.9907547,1.27328214 C23.8717941,0.601251522 25.3063343,0.597982927 26.1818585,1.25618466 L47.803636,17.5110085" id="Path-277" stroke-linecap="round" stroke-linejoin="round" fill="#FFFFFF"></path>
                            <path d="M43.0909091,16.7120556 L43.0909091,39.6168832 C43.0909091,40.8242227 42.1178824,41.8029647 40.9091777,41.8029647 L8.18173135,41.8029647 C6.9767944,41.8029647 6,40.82412 6,39.6168832 L6,16.7120556" id="Rectangle-96" stroke-linecap="round" fill="#FFFFFF"></path>
                            <path d="M20.0258182,40.3035215 L20.0258182,30.3713397 C20.0258182,27.8786124 22.0538182,25.8522488 24.5454545,25.8522488 C27.0376364,25.8522488 29.0650909,27.8786124 29.0650909,30.3713397 L29.0650909,40.3035215" id="Shape"></path>
                            <path d="M26.5448036,16.0216909 C26.5448036,17.5698478 25.2841253,18.8322171 23.7342774,18.8322171 C22.185275,18.8322171 20.9237512,17.5698478 20.9237512,16.0216909 C20.9237512,14.471843 22.185275,13.2094737 23.7342774,13.2094737 C25.2841253,13.2094737 26.5448036,14.471843 26.5448036,16.0216909 L26.5448036,16.0216909 Z" id="Path"></path>
                        </g>
                    </g>
                </g>
            </g>
        </g>
    </g>
</svg>