<?xml version="1.0" encoding="UTF-8" standalone="no"?>
<svg width="96px" height="86px" viewBox="0 0 96 86" version="1.1" xmlns="http://www.w3.org/2000/svg" xmlns:xlink="http://www.w3.org/1999/xlink" xmlns:sketch="http://www.bohemiancoding.com/sketch/ns">
    <!-- Generator: bin/sketchtool 1.4 (305) - http://www.bohemiancoding.com/sketch -->
    <title>take</title>
    <desc>Created with bin/sketchtool.</desc>
    <defs></defs>
    <g id="Page-1" stroke="none" stroke-width="1" fill="none" fill-rule="evenodd" sketch:type="MSPage">
        <g id="gladPet_main" sketch:type="MSArtboardGroup" transform="translate(-410.000000, -795.000000)" fill="#A09996">
            <g id="important-parts" sketch:type="MSLayerGroup" transform="translate(0.000000, 759.000000)">
                <g id="take" transform="translate(350.000000, 1.000000)" sketch:type="MSShapeGroup">
                    <g transform="translate(60.000000, 35.100000)" id="Shape">
                        <path d="M9.663,6.72247654 L4.433,34.0614765 C2.334,34.2484765 0.686,36.0124765 0.686,38.1614765 L0.686,39.3554765 C0.686,41.6274765 2.532,43.4714765 4.804,43.4714765 L9.652,43.4714765 C9.737,54.1234765 9.838,64.0704765 12.578,74.7564765 C12.964,76.2674765 14.608,83.6274765 17.056,84.9014765 C19.935,86.3974765 22.572,80.4904765 25.103,78.8194765 C28.758,76.4044765 34.276,76.0974765 38.151,78.3304765 C40.855,79.8854765 43.454,86.2724765 46.717,85.4754765 C49.768,84.7334765 51.713,76.5794765 52.103,74.8884765 C53.072,70.6974765 53.896,66.5594765 56.112,62.9574765 C56.671,62.0444765 57.283,61.2094765 57.937,60.4344765 L57.955,60.4524765 L65.487,67.9854765 C65.89,68.3884765 66.362,68.6814765 66.86,68.8604765 L67.281,68.9804765 C67.73,69.1294765 68.219,69.1734765 68.713,69.0924765 L73.99,68.2204765 L73.994,68.2184765 C74.998,68.2614765 75.997,67.9264765 76.757,67.1704765 C78.295,65.6324765 78.09,63.1084765 76.529,61.5444765 L67.735,52.7494765 L67.739,52.7534765 C71.653,50.2844765 75.686,47.7024765 78.664,43.4714765 L81.971,43.4714765 C82.699,44.3104765 83.363,45.2404765 83.89,46.2094765 C84.561,47.4454765 84.914,48.5744765 84.994,49.5094765 C85.069,50.3934765 84.905,51.0834765 84.532,51.6804765 C84.413,51.8714765 83.913,51.9384765 83.412,51.7774765 C83.227,51.7184765 83.093,51.6464765 83.004,51.5864765 L82.939,51.5364765 L82.996,50.8174765 C82.948,48.7844765 81.478,46.9854765 79.394,46.6074765 C77.01,46.1744765 74.726,47.7554765 74.291,50.1384765 C73.835,52.6524765 74.511,54.9674765 75.849,56.7434765 C77.13,58.4454765 78.928,59.5574765 80.736,60.1344765 C82.552,60.7164765 84.626,60.8454765 86.634,60.2944765 C88.698,59.7264765 90.662,58.4374765 91.984,56.3184765 C93.493,53.8954765 93.95,51.2594765 93.739,48.7664765 C93.573,46.8404765 93.016,45.0034765 92.256,43.3324765 C94.015,42.8644765 95.314,41.2604765 95.314,39.3554765 L95.314,38.1614765 C95.314,36.1284765 93.837,34.4394765 91.9,34.1054765 L86.668,6.72147654 C86,3.24547654 82.627,0.455476539 79.089,0.455476539 L17.241,0.455476539 C13.7,0.455476539 10.327,3.24547654 9.663,6.72247654 L9.663,6.72247654 Z M90.363,34.0454765 L54.474,34.0454765 L54.138,33.5814765 C52.651,31.7794765 50.401,30.6304765 47.884,30.6304765 C45.364,30.6304765 43.111,31.7794765 41.625,33.5814765 L41.288,34.0454765 L5.965,34.0454765 L11.136,7.00347654 C11.666,4.23447654 14.421,1.95547654 17.241,1.95547654 L79.089,1.95547654 C81.906,1.95547654 84.663,4.23447654 85.195,7.00447654 L90.363,34.0454765 Z M23.966,25.8864765 C23.966,28.0004765 25.495,29.8554765 27.569,29.8554765 C29.629,29.8554765 31.174,28.0124765 31.174,25.8864765 L31.174,11.5334765 C31.174,9.41647654 29.641,7.56447654 27.569,7.56447654 C25.508,7.56447654 23.966,9.40547654 23.966,11.5334765 L23.966,25.8864765 Z M44.482,11.5334765 L44.482,25.8864765 C44.482,28.0014765 46.014,29.8554765 48.088,29.8554765 C50.147,29.8554765 51.692,28.0124765 51.692,25.8864765 L51.692,11.5334765 C51.692,9.41747654 50.159,7.56447654 48.088,7.56447654 C46.026,7.56447654 44.482,9.40547654 44.482,11.5334765 L44.482,11.5334765 Z M65,11.5334765 L65,25.8864765 C65,28.0004765 66.531,29.8554765 68.603,29.8554765 C70.664,29.8554765 72.209,28.0124765 72.209,25.8864765 L72.209,11.5334765 C72.209,9.41647654 70.676,7.56447654 68.603,7.56447654 C66.543,7.56447654 65,9.40547654 65,11.5334765 L65,11.5334765 Z M29.674,25.8864765 C29.674,27.3234765 28.648,28.3554765 27.569,28.3554765 C26.477,28.3554765 25.466,27.3114765 25.466,25.8864765 L25.466,11.5334765 C25.466,10.0944765 26.489,9.06447654 27.569,9.06447654 C28.66,9.06447654 29.674,10.1064765 29.674,11.5334765 L29.674,25.8864765 Z M50.192,11.5334765 L50.192,25.8864765 C50.192,27.3234765 49.166,28.3554765 48.088,28.3554765 C46.995,28.3554765 45.982,27.3114765 45.982,25.8864765 L45.982,11.5334765 C45.982,10.0954765 47.007,9.06447654 48.088,9.06447654 C49.178,9.06447654 50.192,10.1064765 50.192,11.5334765 L50.192,11.5334765 Z M70.709,11.5334765 L70.709,25.8864765 C70.709,27.3224765 69.683,28.3554765 68.603,28.3554765 C67.512,28.3554765 66.5,27.3114765 66.5,25.8864765 L66.5,11.5334765 C66.5,10.0944765 67.524,9.06447654 68.603,9.06447654 C69.695,9.06447654 70.709,10.1064765 70.709,11.5334765 L70.709,11.5334765 Z M53.462,35.1974765 C54.113,36.2204765 54.49,37.4344765 54.49,38.7404765 C54.49,38.9844765 54.476,39.2264765 54.451,39.4634765 L51.083,36.0954765 C49.517,34.5324765 46.993,34.3284765 45.455,35.8654765 C43.919,37.4034765 44.121,39.9264765 45.684,41.4914765 L49.371,45.1784765 C48.892,45.2884765 48.394,45.3474765 47.884,45.3474765 C45.552,45.3474765 43.501,44.1414765 42.324,42.3144765 L42.323,42.3124765 C41.658,41.2844765 41.274,40.0574765 41.274,38.7404765 C41.274,37.4344765 41.649,36.2204765 42.302,35.1984765 L42.307,35.1894765 C43.481,33.3474765 45.54,32.1304765 47.884,32.1304765 C50.226,32.1304765 52.286,33.3514765 53.462,35.1974765 L53.462,35.1974765 Z M40.43,35.5454765 L40.284,35.8984765 C39.953,36.7834765 39.774,37.7404765 39.774,38.7404765 C39.774,39.7484765 39.957,40.7154765 40.295,41.6084765 L40.448,41.9714765 L4.804,41.9714765 C3.359,41.9714765 2.186,40.7984765 2.186,39.3554765 L2.186,38.1614765 C2.186,36.7174765 3.359,35.5454765 4.804,35.5454765 L40.43,35.5454765 L40.43,35.5454765 Z M93.814,38.1614765 L93.814,39.3554765 C93.814,40.7984765 92.64,41.9714765 91.196,41.9714765 L56.958,41.9714765 L55.735,40.7484765 L55.774,40.6064765 C55.916,40.0044765 55.99,39.3794765 55.99,38.7404765 C55.99,37.7404765 55.809,36.7834765 55.478,35.8984765 L55.332,35.5454765 L91.196,35.5454765 C92.64,35.5454765 93.814,36.7174765 93.814,38.1614765 L93.814,38.1614765 Z M50.022,37.1564765 L54.359,41.4944765 L56.112,43.2494765 L66.014,53.1514765 C66.016,53.1534765 66.02,53.1574765 66.025,53.1614765 L75.468,62.6054765 C76.547,63.6854765 76.55,65.2554765 75.696,66.1094765 C75.255,66.5494765 74.624,66.7614765 73.969,66.7104765 C73.662,66.6914765 73.35,66.6124765 73.051,66.4764765 C72.862,66.3914765 72.683,66.2864765 72.509,66.1484765 C72.346,66.0234765 72.268,65.9534765 72.193,65.8784765 L46.745,40.4304765 C45.664,39.3494765 45.662,37.7804765 46.516,36.9264765 C47.37,36.0734765 48.94,36.0754765 50.022,37.1564765 L50.022,37.1564765 Z M41.349,43.4714765 L42.334,44.6514765 C43.785,46.0124765 45.736,46.8474765 47.884,46.8474765 C48.446,46.8474765 48.995,46.7894765 49.526,46.6794765 L50.551,46.3584765 L60.266,56.0764765 C59.914,56.3644765 59.566,56.6604765 59.224,56.9674765 L59.713,56.5594765 L59.252,56.9444765 C59.166,57.0204765 59.08,57.0974765 59,57.1834765 C58.464,57.6694765 58.097,58.0304765 58.266,57.8694765 C57.779,58.3644765 57.754,58.3894765 57.441,58.7244765 C57.548,58.6084765 57.513,58.6464765 57.439,58.7284765 C57.419,58.7504765 57.397,58.7744765 57.374,58.7994765 C57.398,58.7724765 57.418,58.7504765 57.423,58.7454765 C57.408,58.7614765 57.376,58.7964765 57.345,58.8334765 L57.001,59.2134765 L57.002,59.2174765 C56.224,60.1134765 55.496,61.0914765 54.833,62.1724765 C52.461,66.0304765 51.589,70.4484765 50.642,74.5514765 C49.908,77.7324765 48.028,83.6134765 46.362,84.0184765 C45.614,84.2004765 44.654,83.3954765 43.213,81.6024765 C41.97,80.0564765 40.494,77.9474765 38.9,77.0314765 C34.509,74.5004765 28.381,74.8554765 24.276,77.5684765 C22.847,78.5114765 21.441,80.4564765 20.297,81.7944765 C18.882,83.4494765 18.189,83.7994765 17.749,83.5704765 C16.251,82.7914765 14.918,77.8594765 14.031,74.3854765 C11.967,66.3374765 11.426,58.7134765 11.247,50.7784765 L11.155,43.4714765 L41.349,43.4714765 L41.349,43.4714765 Z M76.773,43.4714765 L76.473,43.8714765 C74.427,46.3594765 71.96,48.2154765 69.341,49.9434765 L66.649,51.6634765 L58.458,43.4714765 L76.773,43.4714765 L76.773,43.4714765 Z M90.649,43.4714765 L91.103,44.4404765 C91.694,45.8484765 92.112,47.3504765 92.244,48.8934765 C92.433,51.1124765 92.024,53.4164765 90.711,55.5254765 C89.607,57.2944765 87.973,58.3694765 86.237,58.8474765 C84.539,59.3144765 82.763,59.2094765 81.193,58.7054765 C79.629,58.2064765 78.113,57.2564765 77.048,55.8404765 C75.944,54.3764765 75.39,52.4814765 75.766,50.4074765 C76.053,48.8384765 77.557,47.7974765 79.125,48.0824765 C80.691,48.3674765 81.733,49.8724765 81.448,51.4494765 L81.436,51.5254765 C81.396,51.8494765 81.469,52.0914765 81.623,52.3134765 L81.663,52.3694765 C81.899,52.6794765 82.337,53.0094765 82.955,53.2064765 C83.489,53.3774765 85.067,53.6594765 85.805,52.4734765 C86.372,51.5664765 86.588,50.5424765 86.489,49.3824765 C86.387,48.1894765 85.95,46.8604765 85.209,45.4924765 C84.886,44.9004765 84.521,44.3264765 84.126,43.7784765 L83.891,43.4714765 L90.649,43.4714765 L90.649,43.4714765 Z M61.334,57.1444765 L61.344,57.1544765 L68.683,64.4904765 L71.132,66.9394765 C71.199,67.0064765 71.269,67.0724765 71.34,67.1344765 L68.47,67.6114765 C68.22,67.6524765 67.975,67.6304765 67.75,67.5564765 L67.709,67.5424765 L67.666,67.5344765 C67.27,67.4534765 66.876,67.2524765 66.548,66.9244765 L58.952,59.3274765 L58.944,59.3194765 C59.207,59.0474765 59.476,58.7824765 59.761,58.5404765 C59.974,58.3074765 60.3,58.0144765 60.64,57.7404765 C60.781,57.5994765 61.056,57.3694765 61.334,57.1444765 L61.334,57.1444765 Z M57.423,58.7454765 C57.436,58.7304765 57.437,58.7294765 57.439,58.7284765 C57.439,58.7264765 57.44,58.7254765 57.441,58.7244765 C57.439,58.7274765 57.437,58.7294765 57.423,58.7454765 L57.423,58.7454765 Z M71.345,67.1344765 L71.428,67.2104765 C71.398,67.1854765 71.369,67.1604765 71.34,67.1344765 L71.345,67.1344765 L71.345,67.1344765 Z M30.3738784,54.2537434 C30.1498784,54.9107434 30.0928784,55.3977434 30.1488784,55.7757434 C29.2538784,55.5317434 28.2778784,55.5587434 27.4448784,55.9427434 C26.5678784,56.3477434 25.9008784,57.1297434 25.6978784,58.2577434 C25.6248784,58.6647434 25.8958784,59.0547434 26.3038784,59.1287434 C26.7108784,59.2017434 27.1008784,58.9307434 27.1748784,58.5227434 C27.2888784,57.8857434 27.6338784,57.5077434 28.0738784,57.3047434 C28.5398784,57.0897434 29.1618784,57.0527434 29.7918784,57.2347434 C30.9948784,57.5797434 32.0548784,58.6527434 31.8388784,60.3907434 C30.6718784,60.5137434 29.5808784,60.9427434 28.7828784,61.5637434 C28.4558784,61.8177434 28.3968784,62.2897434 28.6508784,62.6167434 C28.9048784,62.9437434 29.3768784,63.0027434 29.7038784,62.7487434 C30.3418784,62.2527434 31.3188784,61.8877434 32.3838784,61.8567434 C33.4368784,61.8267434 34.5338784,62.1237434 35.4478784,62.8927434 C35.7648784,63.1587434 36.2378784,63.1177434 36.5048784,62.8007434 C36.7708784,62.4837434 36.7298784,62.0107434 36.4128784,61.7437434 C35.5418784,61.0117434 34.5538784,60.6037434 33.5688784,60.4397434 C33.3288784,58.6807434 34.4028784,57.5837434 35.6108784,57.2357434 C36.2408784,57.0537434 36.8618784,57.0907434 37.3288784,57.3057434 C37.7678784,57.5087434 38.1128784,57.8867434 38.2268784,58.5237434 C38.3008784,58.9317434 38.6908784,59.2027434 39.0978784,59.1297434 C39.5058784,59.0557434 39.7768784,58.6657434 39.7038784,58.2587434 C39.5008784,57.1307434 38.8338784,56.3487434 37.9568784,55.9437434 C37.1068784,55.5517434 36.1058784,55.5317434 35.1948784,55.7937434 C35.3498784,54.0987434 34.7008784,52.1577434 32.3488784,52.4937434 C31.2568784,52.6497434 30.6978784,53.2997434 30.3738784,54.2537434 L30.3738784,54.2537434 Z M13.7260652,52.8105417 C13.6110652,53.0985417 13.7520652,53.4255417 14.0410652,53.5405417 L20.2420652,56.0065417 C20.5300652,56.1215417 20.8570652,55.9805417 20.9720652,55.6915417 C21.0870652,55.4035417 20.9460652,55.0765417 20.6570652,54.9615417 L14.4560652,52.4955417 C14.1680652,52.3805417 13.8410652,52.5215417 13.7260652,52.8105417 L13.7260652,52.8105417 Z M52.2410652,53.4955417 L46.0410652,55.9605417 C45.7520652,56.0755417 45.6110652,56.4025417 45.7260652,56.6905417 C45.8410652,56.9795417 46.1680652,57.1205417 46.4560652,57.0055417 L52.6560652,54.5405417 C52.9450652,54.4255417 53.0860652,54.0985417 52.9710652,53.8105417 C52.8560652,53.5215417 52.5290652,53.3805417 52.2410652,53.4955417 L52.2410652,53.4955417 Z M13.7050754,55.8735519 C13.6250754,56.1735519 13.8040754,56.4815519 14.1040754,56.5615519 L20.0060754,58.1305519 C20.3060754,58.2105519 20.6140754,58.0315519 20.6940754,57.7315519 C20.7740754,57.4315519 20.5950754,57.1235519 20.2950754,57.0435519 L14.3930754,55.4745519 C14.0930754,55.3945519 13.7850754,55.5735519 13.7050754,55.8735519 L13.7050754,55.8735519 Z M52.0060754,55.4745519 L46.1040754,57.0435519 C45.8040754,57.1235519 45.6250754,57.4315519 45.7050754,57.7315519 C45.7850754,58.0315519 46.0930754,58.2105519 46.3930754,58.1305519 L52.2950754,56.5615519 C52.5950754,56.4815519 52.7740754,56.1735519 52.6940754,55.8735519 C52.6140754,55.5735519 52.3060754,55.3945519 52.0060754,55.4745519 L52.0060754,55.4745519 Z M14.686,64.8174765 C14.686,67.7764765 17.088,70.1794765 20.048,70.1794765 C23.007,70.1794765 25.41,67.7764765 25.41,64.8174765 C25.41,61.8574765 23.007,59.4554765 20.048,59.4554765 C17.088,59.4554765 14.686,61.8574765 14.686,64.8174765 L14.686,64.8174765 Z M40.686,64.8174765 C40.686,67.7764765 43.088,70.1794765 46.048,70.1794765 C49.007,70.1794765 51.41,67.7764765 51.41,64.8174765 C51.41,61.8574765 49.007,59.4554765 46.048,59.4554765 C43.088,59.4554765 40.686,61.8574765 40.686,64.8174765 L40.686,64.8174765 Z M22.44,61.7594765 C22.399,61.7574765 22.357,61.7564765 22.316,61.7564765 C21.173,61.7564765 20.244,62.6854765 20.244,63.8284765 C20.244,64.9714765 21.173,65.9004765 22.316,65.9004765 C22.61,65.9004765 22.889,65.8384765 23.143,65.7274765 C22.578,67.1614765 21.18,68.1794765 19.548,68.1794765 C17.417,68.1794765 15.686,66.4474765 15.686,64.3174765 C15.686,62.1864765 17.417,60.4554765 19.548,60.4554765 C20.698,60.4554765 21.732,60.9594765 22.44,61.7594765 L22.44,61.7594765 Z M49.453,61.7754765 C49.36,61.7624765 49.264,61.7564765 49.167,61.7564765 C48.024,61.7564765 47.095,62.6854765 47.095,63.8284765 C47.095,64.9714765 48.024,65.9004765 49.167,65.9004765 C49.533,65.9004765 49.878,65.8044765 50.177,65.6364765 C49.637,67.1184765 48.214,68.1794765 46.548,68.1794765 C44.417,68.1794765 42.686,66.4474765 42.686,64.3174765 C42.686,62.1864765 44.417,60.4554765 46.548,60.4554765 C47.705,60.4554765 48.746,60.9664765 49.453,61.7754765 L49.453,61.7754765 Z M21.686,70.0184765 L21.686,72.3344765 C21.686,72.6444765 21.938,72.8964765 22.249,72.8964765 C22.559,72.8964765 22.811,72.6444765 22.811,72.3344765 L22.811,70.0184765 C22.811,69.7074765 22.559,69.4554765 22.249,69.4554765 C21.938,69.4554765 21.686,69.7074765 21.686,70.0184765 L21.686,70.0184765 Z M43.686,70.0184765 L43.686,72.3344765 C43.686,72.6444765 43.938,72.8964765 44.249,72.8964765 C44.559,72.8964765 44.811,72.6444765 44.811,72.3344765 L44.811,70.0184765 C44.811,69.7074765 44.559,69.4554765 44.249,69.4554765 C43.938,69.4554765 43.686,69.7074765 43.686,70.0184765 L43.686,70.0184765 Z M19.686,71.0184765 L19.686,73.3334765 C19.686,73.6434765 19.938,73.8954765 20.249,73.8954765 C20.559,73.8954765 20.811,73.6434765 20.811,73.3334765 L20.811,71.0184765 C20.811,70.7074765 20.559,70.4554765 20.249,70.4554765 C19.938,70.4554765 19.686,70.7074765 19.686,71.0184765 L19.686,71.0184765 Z M45.686,71.0184765 L45.686,73.3334765 C45.686,73.6434765 45.938,73.8954765 46.249,73.8954765 C46.559,73.8954765 46.811,73.6434765 46.811,73.3334765 L46.811,71.0184765 C46.811,70.7074765 46.559,70.4554765 46.249,70.4554765 C45.938,70.4554765 45.686,70.7074765 45.686,71.0184765 L45.686,71.0184765 Z" transform="translate(48.000000, 42.999738) scale(1, -1) translate(-48.000000, -42.999738) "></path>
                    </g>
                </g>
            </g>
        </g>
    </g>
</svg>